<svg width="21" height="21" viewBox="0 0 21 21" fill="none" xmlns="http://www.w3.org/2000/svg">
<path d="M18.5825 2.41744L18.5825 2.41748C19.3952 3.23011 19.7583 4.26219 19.9312 5.55023M18.5825 2.41744L19.8321 5.56353M18.5825 2.41744C17.7699 1.60576 16.7379 1.24174 15.4507 1.0688C14.1962 0.9 12.5921 0.9 10.5579 0.9H10.5504H10.4496M18.5825 2.41744L10.4496 0.9M19.9312 5.55023L19.8321 5.56353M19.9312 5.55023C19.9312 5.55022 19.9312 5.5502 19.9312 5.55019L19.8321 5.56353M19.9312 5.55023C20.1 6.80381 20.1 8.40789 20.1 10.4421V10.4496V10.5274V10.5315C20.1 12.2151 20.1 13.5988 20.0078 14.727M19.8321 5.56353C20 6.81047 20 8.40912 20 10.4496V10.5274C20 12.2144 20 13.5948 19.9081 14.7189M20.0078 14.727L19.9081 14.7189M20.0078 14.727C20.0078 14.727 20.0078 14.727 20.0078 14.727L19.9081 14.7189M20.0078 14.727C19.9155 15.863 19.7258 16.8222 19.2936 17.625C19.2936 17.6251 19.2936 17.6251 19.2936 17.6251L19.2055 17.5777L19.9081 14.7189M3.14429 10.3956L3.14434 10.3956C3.55157 10.0393 4.07898 9.85118 4.61973 9.86926C5.16048 9.88734 5.67414 10.1103 6.05666 10.4929L3.14429 10.3956ZM3.14429 10.3956L2.42558 11.0253V10.5C2.42558 8.39573 2.42756 6.89426 2.58022 5.75361C2.73072 4.63449 3.01445 3.9786 3.49652 3.49652C3.97774 3.01531 4.63453 2.73072 5.75273 2.58022C6.89338 2.42756 8.39573 2.42558 10.5 2.42558C12.6043 2.42558 14.1058 2.42756 15.2465 2.58023C16.3655 2.73073 17.0215 3.01446 17.5035 3.4957C17.9847 3.97781 18.2693 4.63463 18.4198 5.75361C18.5724 6.89426 18.5744 8.39573 18.5744 10.5C18.5744 12.2212 18.5735 13.5439 18.4873 14.6038L18.4873 14.6039C18.4143 15.5034 18.2827 16.152 18.0705 16.6492L15.6713 14.4899C15.6713 14.4899 15.6713 14.4899 15.6713 14.4899C15.2084 14.0732 14.6178 13.8259 13.9961 13.7884C13.3744 13.7509 12.7584 13.9255 12.2488 14.2836L12.2487 14.2837L11.9855 14.4692L3.14429 10.3956ZM10.4496 0.9H10.4421M10.4496 0.9H10.4421M10.4421 0.9C8.40788 0.9 6.8038 0.9 5.55023 1.0688L10.4421 0.9ZM15.4498 19.9312C15.4498 19.9312 15.4498 19.9312 15.4498 19.9312L15.4365 19.8321L15.4498 19.9312ZM5.54934 19.9312L5.56265 19.8321L5.54931 19.9312C5.54932 19.9312 5.54933 19.9312 5.54934 19.9312ZM1.13484 15.8728C1.13485 15.8729 1.13486 15.8729 1.13486 15.8729L1.2333 15.8553L1.13483 15.8728C1.13484 15.8728 1.13484 15.8728 1.13484 15.8728ZM9.84782 14.2841L6.05668 10.4929L11.9854 14.4692C11.6643 14.6948 11.2739 14.8 10.8829 14.7661C10.4919 14.7323 10.1254 14.5616 9.84783 14.2841C9.84783 14.2841 9.84782 14.2841 9.84782 14.2841Z" fill="#DEDEDE" stroke="#DEDEDE" stroke-width="0.2"/>
</svg>
