<svg width="20" height="17" viewBox="0 0 20 17" fill="none" xmlns="http://www.w3.org/2000/svg">
<path d="M18 0.5C18.5304 0.5 19.0391 0.710714 19.4142 1.08579C19.7893 1.46086 20 1.96957 20 2.5V14.5C20 15.0304 19.7893 15.5391 19.4142 15.9142C19.0391 16.2893 18.5304 16.5 18 16.5H2C1.46957 16.5 0.960859 16.2893 0.585786 15.9142C0.210714 15.5391 0 15.0304 0 14.5V2.5C0 1.96957 0.210714 1.46086 0.585786 1.08579C0.960859 0.710714 1.46957 0.5 2 0.5H18ZM18 14.5V2.5H2V14.5H18ZM4 6.5H6V8.5H4V6.5ZM4 10.5H12V12.5H4V10.5ZM14 10.5H16V12.5H14V10.5ZM8 6.5H16V8.5H8V6.5Z" fill="white"/>
</svg>
