<svg width="20" height="20" viewBox="0 0 20 20" fill="none" xmlns="http://www.w3.org/2000/svg">
<path d="M17.9337 4.09197H14.8014C14.5705 4.09217 14.3455 4.01964 14.1581 3.88473C13.9707 3.74982 13.8306 3.55938 13.7576 3.34036L13.4795 2.50516C13.378 2.19782 13.1822 1.93027 12.9199 1.74066C12.6576 1.55104 12.3421 1.44895 12.0185 1.44897H8.00608C7.68238 1.44882 7.36692 1.55092 7.10459 1.74055C6.84227 1.93019 6.64648 2.19775 6.54513 2.50516L6.26704 3.3395C6.19417 3.55869 6.0541 3.74933 5.86673 3.88441C5.67937 4.01948 5.45418 4.09211 5.2232 4.09197H2.09181C1.91675 4.09197 1.74885 4.16156 1.62506 4.28535C1.50127 4.40914 1.43173 4.57698 1.43173 4.75205C1.43173 4.92711 1.50127 5.09495 1.62506 5.21874C1.74885 5.34253 1.91675 5.41213 2.09181 5.41213H3.23593L3.911 15.5333C3.96865 16.3681 4.34046 17.15 4.95155 17.7215C5.56264 18.2931 6.36762 18.6119 7.20435 18.6137H12.8255C13.6622 18.6117 14.4671 18.2929 15.0781 17.7213C15.6892 17.1498 16.061 16.368 16.1189 15.5333L16.7939 5.41213H17.9337C18.1087 5.41213 18.2766 5.34253 18.4004 5.21874C18.5242 5.09495 18.5937 4.92711 18.5937 4.75205C18.5937 4.57698 18.5242 4.40914 18.4004 4.28535C18.2766 4.16156 18.1087 4.09197 17.9337 4.09197ZM7.79749 2.92233C7.81208 2.87854 7.8401 2.8404 7.87753 2.81339C7.91497 2.78638 7.95992 2.77185 8.00608 2.77182H12.0185C12.0645 2.77179 12.1094 2.78623 12.1469 2.81307C12.1843 2.83991 12.2123 2.87784 12.2271 2.92147L12.5052 3.75667C12.5439 3.87157 12.5913 3.98337 12.6469 4.09111H7.37683C7.43246 3.98307 7.47983 3.871 7.51854 3.75581L7.79749 2.92233ZM14.7987 15.4453C14.7642 15.9462 14.5412 16.4153 14.1745 16.7583C13.8079 17.1012 13.3249 17.2925 12.8229 17.2935H7.20171C6.69968 17.2925 6.21666 17.1012 5.85003 16.7583C5.48339 16.4153 5.26034 15.9462 5.22583 15.4453L4.557 5.41213H5.2232C5.31654 5.41015 5.40971 5.40278 5.50221 5.3901C5.53789 5.40053 5.57442 5.40792 5.61136 5.41213H14.4124C14.4493 5.40796 14.4858 5.40058 14.5215 5.3901C14.614 5.40277 14.7072 5.41013 14.8005 5.41213H15.4668L14.7987 15.4453ZM12.433 9.15256V13.5531C12.433 13.7281 12.3635 13.896 12.2397 14.0198C12.1159 14.1436 11.948 14.2132 11.7729 14.2132C11.5979 14.2132 11.43 14.1436 11.3062 14.0198C11.1824 13.896 11.1129 13.7281 11.1129 13.5531V9.15256C11.1129 8.9775 11.1824 8.80966 11.3062 8.68587C11.43 8.56208 11.5979 8.49249 11.7729 8.49249C11.948 8.49249 12.1159 8.56208 12.2397 8.68587C12.3635 8.80966 12.433 8.9775 12.433 9.15256ZM8.91261 9.15256V13.5531C8.91261 13.7281 8.84307 13.896 8.71928 14.0198C8.59549 14.1436 8.4276 14.2132 8.25253 14.2132C8.07747 14.2132 7.90957 14.1436 7.78578 14.0198C7.66199 13.896 7.59245 13.7281 7.59245 13.5531V9.15256C7.59245 8.9775 7.66199 8.80966 7.78578 8.68587C7.90957 8.56208 8.07747 8.49249 8.25253 8.49249C8.4276 8.49249 8.59549 8.56208 8.71928 8.68587C8.84307 8.80966 8.91261 8.9775 8.91261 9.15256Z" fill="white"/>
</svg>
