<svg width="20" height="20" viewBox="0 0 20 20" fill="none" xmlns="http://www.w3.org/2000/svg">
<path d="M18.3906 1.60724C18.07 1.28346 17.6703 1.04918 17.2311 0.927637C16.7919 0.806094 16.3286 0.80157 15.8871 0.914439L3.55944 3.99608C2.77641 4.19223 2.08198 4.64569 1.58758 5.2838C1.09318 5.9219 0.827458 6.70763 0.833096 7.51484C0.838734 8.32204 1.11542 9.10395 1.61868 9.73509C2.12195 10.3662 2.82263 10.81 3.60833 10.9952L7.97608 12.0227L9.00363 16.3905C9.17973 17.1806 9.62071 17.8868 10.2534 18.3918C10.8861 18.8967 11.6725 19.1701 12.4821 19.1666H12.5093C13.3143 19.1759 14.0985 18.911 14.733 18.4155C15.3675 17.92 15.8147 17.2235 16.0009 16.4403L19.0826 4.11267C19.1955 3.67098 19.1911 3.20738 19.0697 2.76792C18.9483 2.32846 18.7142 1.92837 18.3906 1.60724ZM17.7156 3.76954L14.634 16.0971C14.5197 16.5763 14.2451 17.0021 13.8558 17.3041C13.4666 17.606 12.9859 17.7659 12.4933 17.7574C11.9992 17.7634 11.5183 17.5982 11.1323 17.2897C10.7463 16.9812 10.4791 16.5485 10.3762 16.0652L9.34206 11.6561L13.3206 7.67757C13.3861 7.61207 13.4381 7.53431 13.4735 7.44874C13.509 7.36316 13.5272 7.27144 13.5272 7.17882C13.5272 7.0862 13.509 6.99448 13.4735 6.90891C13.4381 6.82334 13.3861 6.74557 13.3206 6.68008C13.2551 6.61458 13.1773 6.56266 13.0918 6.52722C13.0062 6.49177 12.9145 6.47351 12.8219 6.47351C12.7292 6.47351 12.6375 6.49177 12.5519 6.52722C12.4664 6.56266 12.3887 6.61458 12.3232 6.68008L8.34463 10.6587L3.93551 9.62446C3.45724 9.51211 3.03063 9.24224 2.72422 8.85821C2.41781 8.47419 2.24938 7.99842 2.24602 7.50715C2.24265 7.01588 2.40456 6.53772 2.70569 6.14954C3.00681 5.76136 3.42968 5.48566 3.90636 5.36677L16.2331 2.28501C16.3317 2.2601 16.4331 2.24754 16.5348 2.24749C16.721 2.24749 16.9046 2.29 17.0718 2.37177C17.239 2.45354 17.3853 2.57236 17.4996 2.71926C17.6138 2.86617 17.693 3.03722 17.7311 3.21939C17.7692 3.40156 17.7652 3.59008 17.7194 3.77046L17.7156 3.76954Z" fill="white"/>
</svg>
