<svg width="45" height="45" viewBox="0 0 45 45" fill="none" xmlns="http://www.w3.org/2000/svg">
<path d="M39.001 24.3329C39.001 27.5963 38.0333 30.7864 36.2202 33.4998C34.4072 36.2132 31.8302 38.3281 28.8153 39.5769C25.8003 40.8258 22.4827 41.1525 19.282 40.5159C16.0813 39.8792 13.1413 38.3078 10.8337 36.0002C8.52616 33.6926 6.95468 30.7526 6.31803 27.5519C5.68137 24.3512 6.00813 21.0336 7.25697 18.0186C8.50582 15.0037 10.6207 12.4267 13.3341 10.6137C16.0475 8.80063 19.2376 7.83293 22.501 7.83293H36.251M36.251 7.83293L32.5843 4.16626M36.251 7.83293L32.5843 11.4996M17.001 16.9996V29.8329" stroke="white" stroke-width="2.75" stroke-linecap="round" stroke-linejoin="round"/>
<path d="M28.001 16.9993H24.3343C23.8481 16.9993 23.3818 17.1924 23.0379 17.5362C22.6941 17.8801 22.501 18.3464 22.501 18.8326V21.5826C22.501 22.0688 22.6941 22.5351 23.0379 22.879C23.3818 23.2228 23.8481 23.4159 24.3343 23.4159H26.1676C26.6539 23.4159 27.1202 23.6091 27.464 23.9529C27.8078 24.2967 28.001 24.763 28.001 25.2493V27.9993C28.001 28.4855 27.8078 28.9518 27.464 29.2956C27.1202 29.6394 26.6539 29.8326 26.1676 29.8326H22.501" stroke="white" stroke-width="2.75" stroke-linecap="round" stroke-linejoin="round"/>
</svg>
