<svg width="21" height="21" viewBox="0 0 21 21" fill="none" xmlns="http://www.w3.org/2000/svg">
<path d="M11.0001 0.5C9.68689 0.5 8.38653 0.758658 7.17328 1.2612C5.96002 1.76375 4.85763 2.50035 3.92904 3.42893C2.05368 5.3043 1.00011 7.84784 1.00011 10.5C0.991368 12.8091 1.7909 15.0485 3.26011 16.83L1.26011 18.83C1.12135 18.9706 1.02736 19.1492 0.989982 19.3432C0.952608 19.5372 0.973531 19.7379 1.05011 19.92C1.13317 20.0999 1.26781 20.2511 1.43696 20.3544C1.6061 20.4577 1.80211 20.5083 2.00011 20.5H11.0001C13.6523 20.5 16.1958 19.4464 18.0712 17.5711C19.9465 15.6957 21.0001 13.1522 21.0001 10.5C21.0001 7.84784 19.9465 5.3043 18.0712 3.42893C16.1958 1.55357 13.6523 0.5 11.0001 0.5ZM11.0001 18.5H4.41011L5.34011 17.57C5.52636 17.3826 5.6309 17.1292 5.6309 16.865C5.6309 16.6008 5.52636 16.3474 5.34011 16.16C4.0307 14.852 3.21528 13.1305 3.0328 11.2888C2.85032 9.44705 3.31205 7.59901 4.33934 6.05952C5.36662 4.52004 6.8959 3.38436 8.66663 2.84597C10.4374 2.30759 12.34 2.3998 14.0503 3.10691C15.7607 3.81402 17.173 5.09227 18.0465 6.72389C18.9201 8.35551 19.201 10.2395 18.8412 12.055C18.4815 13.8705 17.5034 15.505 16.0736 16.6802C14.6439 17.8554 12.8509 18.4985 11.0001 18.5Z" fill="white"/>
</svg>
