<svg width="20" height="20" viewBox="0 0 20 20" fill="none" xmlns="http://www.w3.org/2000/svg">
<path d="M14.5916 8.06304C14.5163 7.91231 14.4772 7.74626 14.4772 7.57793C14.4772 7.40961 14.5163 7.24356 14.5916 7.09283L16.8165 2.66715C16.8663 2.56792 16.8897 2.45766 16.8847 2.34687C16.8796 2.23608 16.8462 2.12843 16.7876 2.03411C16.729 1.93979 16.6472 1.86194 16.5499 1.80795C16.4526 1.75395 16.3431 1.72559 16.2317 1.72559H7.51671C6.41924 1.72696 5.36712 2.16169 4.59108 2.93441C3.81505 3.70713 3.37846 4.75477 3.37708 5.84756V17.9601C3.37708 18.1327 3.44594 18.2983 3.56851 18.4204C3.69109 18.5424 3.85735 18.6109 4.0307 18.6109C4.20405 18.6109 4.37031 18.5424 4.49289 18.4204C4.61547 18.2983 4.68433 18.1327 4.68433 17.9601V13.4407H16.2317C16.3431 13.4407 16.4526 13.4124 16.5499 13.3584C16.6472 13.3044 16.729 13.2265 16.7876 13.1322C16.8462 13.0379 16.8796 12.9302 16.8847 12.8194C16.8897 12.7086 16.8663 12.5984 16.8165 12.4992L14.5916 8.06304ZM4.68433 12.1338V5.84237C4.68525 5.09466 4.98395 4.37783 5.51493 3.84912C6.0459 3.32041 6.7658 3.02299 7.51671 3.02207H15.1746L13.4229 6.51058C13.2574 6.84225 13.1712 7.20757 13.1712 7.57793C13.1712 7.9483 13.2574 8.31362 13.4229 8.64529L15.1746 12.1338H4.68433Z" fill="#AA73F0"/>
</svg>
