<svg width="20" height="20" viewBox="0 0 20 20" fill="none" xmlns="http://www.w3.org/2000/svg">
<path d="M17.4807 2.54657C16.7658 1.83185 15.7962 1.43042 14.7853 1.43042C13.7743 1.43042 12.8048 1.83185 12.0898 2.54657L2.81777 11.8187C2.45978 12.1749 2.22296 12.6346 2.14085 13.1329L1.44544 17.3037C1.41897 17.4627 1.42741 17.6256 1.47026 17.7809C1.51312 17.9363 1.58933 18.0804 1.69356 18.2033C1.79779 18.3262 1.92758 18.4249 2.07385 18.4926C2.22011 18.5603 2.37932 18.5953 2.54048 18.5951C2.60124 18.5953 2.66196 18.5904 2.72187 18.5802L6.89349 17.8847C7.39141 17.8028 7.85092 17.5662 8.20688 17.2086L17.4789 7.9366C18.1936 7.2218 18.5951 6.25237 18.5951 5.24158C18.5951 4.23079 18.1936 3.26137 17.4789 2.54657H17.4807ZM7.27555 16.2791C7.11382 16.4417 6.90502 16.5491 6.67874 16.5863L2.79843 17.2325L3.44456 13.3529C3.48174 13.1267 3.58923 12.9179 3.75178 12.7561L10.8671 5.64079L14.3883 9.16192L7.27555 16.2791ZM16.5476 7.00699L15.324 8.2306L11.8029 4.70946L13.0265 3.48585C13.2547 3.24183 13.5297 3.04629 13.8351 2.91074C14.1405 2.77519 14.4701 2.70247 14.8042 2.6969C15.1383 2.69133 15.4701 2.753 15.7799 2.87829C16.0896 3.00358 16.371 3.18994 16.6073 3.42621C16.8436 3.66248 17.0299 3.94387 17.1552 4.25363C17.2805 4.56339 17.3422 4.89513 17.3366 5.22923C17.331 5.56332 17.2583 5.89297 17.1228 6.19838C16.9872 6.50379 16.7916 6.77872 16.5476 7.00699Z" fill="white"/>
</svg>
